<svg xmlns="http://www.w3.org/2000/svg" width="136.69" height="140.282" viewBox="0 0 136.69 140.282">
  <metadata><?xpacket begin="﻿" id="W5M0MpCehiHzreSzNTczkc9d"?>
<x:xmpmeta xmlns:x="adobe:ns:meta/" x:xmptk="Adobe XMP Core 5.6-c138 79.159824, 2016/09/14-01:09:01        ">
   <rdf:RDF xmlns:rdf="http://www.w3.org/1999/02/22-rdf-syntax-ns#">
      <rdf:Description rdf:about=""/>
   </rdf:RDF>
</x:xmpmeta>
                                                                                                    
                                                                                                    
                                                                                                    
                                                                                                    
                                                                                                    
                                                                                                    
                                                                                                    
                                                                                                    
                                                                                                    
                                                                                                    
                                                                                                    
                                                                                                    
                                                                                                    
                                                                                                    
                                                                                                    
                                                                                                    
                                                                                                    
                                                                                                    
                                                                                                    
                                                                                                    
                           
<?xpacket end="w"?></metadata>
<defs>
    <style>
      .cls-1 {
        fill: #505050;
        fill-rule: evenodd;
      }
    </style>
  </defs>
  <path id="Shape_7_copy_8" data-name="Shape 7 copy 8" class="cls-1" d="M1013.83,400.8a1.832,1.832,0,0,1-.89,2.423,5.4,5.4,0,0,0-2.84,3.078c-1.02,2.755-.02,3.8,4.42,13.409a1.83,1.83,0,0,1-1.66,2.591c-1.56,0-1.46-.617-5.92-10.279C1003.37,404.276,1012.1,397.045,1013.83,400.8Zm3.23,24.209a1.825,1.825,0,1,1-3.65,0A1.828,1.828,0,0,1,1017.06,425.005Zm49.02-64.444a1.826,1.826,0,0,1,0,3.652A1.826,1.826,0,0,1,1066.08,360.561ZM1081,335.3a3.708,3.708,0,0,1,2.18-6.3l26.07-3.145a3.869,3.869,0,0,1,4.31,4.312l-3.14,26.069a3.708,3.708,0,0,1-6.3,2.179l-4.75-4.747a0.238,0.238,0,0,0-.34,0c-33.7,33.7-31.46,31.793-32.55,31.793a1.827,1.827,0,0,1-1.29-3.117l31.26-31.259a3.892,3.892,0,0,1,5.5,0l4.75,4.747,1.91,0.185-1.82-.218,3.15-26.069a0.217,0.217,0,0,0-.07-0.185,0.207,0.207,0,0,0-.18-0.064l-26.07,3.144L1082.3,334l1.29-1.291,4.74,4.745a3.894,3.894,0,0,1,0,5.506l-17.26,17.259a1.825,1.825,0,0,1-2.58-2.582l17.26-17.259a0.244,0.244,0,0,0,0-.342Zm-59.91,115.894c-3.96-3.489-2.5-6.062.75-23.651a1.8,1.8,0,0,1,.13-0.4l-8.39-18.181a1.815,1.815,0,0,1,.89-2.423l9.19-4.24a5.848,5.848,0,0,1-1.56-2.444,2.832,2.832,0,0,1-2.61-1.436,30.347,30.347,0,0,1,8.55-38.215c-0.03-.913,2.74-8.805,3.93-9.589,0.02-1.878.04-4.576,0.05-6.362-1.36-1.562-4.05-7.093-2-12.039,4.8-11.573,27.71-6.883,20.99,4.747a35.488,35.488,0,0,1,.55,8.543,24.017,24.017,0,0,1-.85,5.012c-0.59,2.513-2.89,3.442-5.45,3.442a9.15,9.15,0,0,1-7.07-3.476,1.827,1.827,0,0,1,2.85-2.288,5.33,5.33,0,0,0,5.8,1.865,1.605,1.605,0,0,0,.5-1.146,27.375,27.375,0,0,0,.06-11.4c-3.1-2.059-6.74-.7-7.58.932-0.48.913-.13,2.312-1.74,2.657a1.833,1.833,0,0,1-1.97-.885c-0.85-1.507-2.16-.847-1.87.576,1.9,3.4,1.42-.377,1.38,11.267a14.565,14.565,0,0,0,8.12,3.24,1.852,1.852,0,0,1,1.37.781,29.115,29.115,0,0,1,4.81,11.563c1.25,7.074-.86,14.842-2.79,21.529,13.01,1.886,15.42,1.534,17.74,5.038a7.308,7.308,0,0,1,.96,5.912c-7.91,29.67-7.28,29-9.53,30.984h7.95V412.845a1.829,1.829,0,0,1,1.83-1.826h21.91V392.76a1.828,1.828,0,0,1,1.83-1.826h21.91v-18.26a1.826,1.826,0,0,1,1.82-1.825h27.39a1.826,1.826,0,1,1,0,3.651h-25.56v18.26a1.829,1.829,0,0,1-1.83,1.826h-21.91v18.259a1.82,1.82,0,0,1-1.82,1.826h-21.91V432.93a1.828,1.828,0,0,1-1.83,1.826h-21.91v18.259a1.828,1.828,0,0,1-1.83,1.826h-21.91v9.13a1.825,1.825,0,1,1-3.65,0C1016.78,450.331,1015.7,451.189,1021.09,451.189Zm-3.43-42.105,7.65,16.579,24.87-11.475-7.65-16.58Zm12.18-10.9a3.6,3.6,0,0,0-.39-0.735,18.074,18.074,0,0,1-3.67,1.718A2.193,2.193,0,0,0,1029.84,398.186Zm7.09-62.024c1.91-2.857,6.93-4.578,11.43-2.3,1.51-6.176-15.52-7.132-15.42,2.358A4.256,4.256,0,0,1,1036.93,336.162Zm9.4,32.112a25.448,25.448,0,0,0-3.76-9.427,18.353,18.353,0,0,1-8.97-3.715c-0.33.759-.63,1.518-0.92,2.275a1.825,1.825,0,0,1,.97,3.416,26.847,26.847,0,0,0-11.17,35.411c1.74-.022,5.87-2.021,6.6-3.132a19.535,19.535,0,0,1,8.1-25.887,1.824,1.824,0,0,1,1.76,3.2,15.884,15.884,0,0,0-6.47,21.3,3.165,3.165,0,0,1-.27,3.266,6.844,6.844,0,0,1,1.26,2.8l8.46-3.906C1044.71,384.851,1047.59,375.459,1046.33,368.274Zm8.67,58.294c7.94-29.77,8.06-28.463,6.82-30.345-1.2-1.811-1.64-1.471-15.73-3.514-0.27.893-.52,1.695-0.72,2.349l2.46,5.326c7.24,1,6.58.041,4.18,9.056,3.33,7.228,3.82,6.161-2.41,9.038a0.039,0.039,0,0,0-.01.031l-1.65,6.177C1046.69,429.377,1053.75,431.255,1055,426.568Zm-14.48,24.621V432.93a1.82,1.82,0,0,1,1.82-1.826h4.31c-3.95-3.49-2.11-7.827-1.36-10.639l-7.9,3.646v0c-4.64,24.724-4.13,24.852-6.66,27.076h9.79Zm-17.63-3.415a3.66,3.66,0,0,0,6.61-1.388l3.82-20.4c-0.27.126-7.9,3.649-8.18,3.769C1022.08,446.348,1021.76,446.116,1022.89,447.774Zm94.32-34.929a1.826,1.826,0,1,1-1.83,1.826A1.82,1.82,0,0,1,1117.21,412.845Zm0,7.3a1.82,1.82,0,0,1,1.82,1.826v12.781a1.82,1.82,0,0,1-1.82,1.826H1095.3v18.259a1.828,1.828,0,0,1-1.83,1.826h-23.74a1.826,1.826,0,0,1,0-3.652h21.91V434.756a1.829,1.829,0,0,1,1.83-1.826h21.91V421.975A1.828,1.828,0,0,1,1117.21,420.149Z" transform="translate(-1006.09 -325.531)"/>
</svg>

