<svg xmlns="http://www.w3.org/2000/svg" width="140.59" height="146.313" viewBox="0 0 140.59 146.313">
  <metadata><?xpacket begin="﻿" id="W5M0MpCehiHzreSzNTczkc9d"?>
<x:xmpmeta xmlns:x="adobe:ns:meta/" x:xmptk="Adobe XMP Core 5.6-c138 79.159824, 2016/09/14-01:09:01        ">
   <rdf:RDF xmlns:rdf="http://www.w3.org/1999/02/22-rdf-syntax-ns#">
      <rdf:Description rdf:about=""/>
   </rdf:RDF>
</x:xmpmeta>
                                                                                                    
                                                                                                    
                                                                                                    
                                                                                                    
                                                                                                    
                                                                                                    
                                                                                                    
                                                                                                    
                                                                                                    
                                                                                                    
                                                                                                    
                                                                                                    
                                                                                                    
                                                                                                    
                                                                                                    
                                                                                                    
                                                                                                    
                                                                                                    
                                                                                                    
                                                                                                    
                           
<?xpacket end="w"?></metadata>
<defs>
    <style>
      .cls-1 {
        fill: #505050;
        fill-rule: evenodd;
      }
    </style>
  </defs>
  <path id="Shape_7_copy_6" data-name="Shape 7 copy 6" class="cls-1" d="M1617.89,466.749a2.055,2.055,0,1,1-2.05-2.054A2.055,2.055,0,0,1,1617.89,466.749Zm-102.48,0a1.827,1.827,0,0,1,1.82-1.826h93.13a1.826,1.826,0,0,1,0,3.652h-93.13A1.826,1.826,0,0,1,1515.41,466.749Zm81.5-95.355a2.054,2.054,0,1,1-2.05-2.054A2.055,2.055,0,0,1,1596.91,371.394Zm-2.59-31.9a24.85,24.85,0,0,1,5.26,27.246,1.83,1.83,0,0,1-1.68,1.111,1.855,1.855,0,0,1-.72-0.147,1.828,1.828,0,0,1-.96-2.4,21.169,21.169,0,0,0-4.48-23.232A1.825,1.825,0,0,1,1594.32,339.5Zm32.47,107.058v11.065h10.96a1.826,1.826,0,0,1,0,3.652H1500.8a1.826,1.826,0,0,1,0-3.652h5.48V446.554a9.024,9.024,0,0,1,9.01-9.02h28.37q-0.45-1.192-.84-2.369h-20.78a3.459,3.459,0,0,1-3-1.706c-1.94-3.274,1.81-2.945,1.43-11.781a3.514,3.514,0,0,1,3.5-3.686h16.72c0.09-.839.21-1.67,0.37-2.49-1.43.165-.47,0.121-16.52,0.121a16.458,16.458,0,0,1-16.44-16.433v-9.24a3.546,3.546,0,0,1,3.54-3.542h5.7a3.548,3.548,0,0,1,3.55,3.542v5.588h3.65V389.95a3.538,3.538,0,0,1,3.53-3.542h7.53a3.544,3.544,0,0,1,3.55,3.533v5.6h3.65v-5.6a3.533,3.533,0,0,1,3.53-3.533h5.44q0.225-1.478.33-3.076a5.455,5.455,0,0,1-1.62-6.215c-4.19-1.041-5.2-6.213-2.66-9.032l-1.32-1.324c-10.46-10.438.76-27.839,14.56-22.687,0-2.064.24-3.314-.92-3.314h-2.73a3.657,3.657,0,0,1-3.66-3.652v-3.652a3.657,3.657,0,0,1,3.66-3.652c4.22,0,3.65.5,3.65-3.652a3.648,3.648,0,0,1,3.65-3.651h3.65a3.648,3.648,0,0,1,3.65,3.651v2.739a0.915,0.915,0,0,0,.92.913h2.73a3.657,3.657,0,0,1,3.66,3.652v3.652a3.657,3.657,0,0,1-3.66,3.652c-4.16,0-3.65-.435-3.65,3.314,13.79-5.148,25.06,12.212,14.57,22.687l-1.33,1.325c2.54,2.82,1.52,7.991-2.66,9.031a5.466,5.466,0,0,1-1.62,6.215q0.1,1.6.33,3.076h5.43a3.542,3.542,0,0,1,3.54,3.533v5.6h3.65v-5.6a3.542,3.542,0,0,1,3.54-3.533h7.53a3.542,3.542,0,0,1,3.54,3.533v5.6h3.65v-5.6a3.542,3.542,0,0,1,3.54-3.533h5.7a3.544,3.544,0,0,1,3.55,3.533v9.249a16.458,16.458,0,0,1-16.44,16.433c-16.04,0-15.09.044-16.52-.122,0.15,0.821.28,1.651,0.37,2.491h17.29a3.521,3.521,0,0,1,3.51,3.69c-0.01.2-.02,0.4-0.02,0.617a14.505,14.505,0,0,0,1.5,7.653,3.507,3.507,0,0,1-3.06,5.213h-21.35c-0.26.785-.54,1.574-0.85,2.369h28.37A9.026,9.026,0,0,1,1626.79,446.554Zm-111.5-5.368a5.367,5.367,0,0,0-5.36,5.368v11.065h23.74v-3.537a7.42,7.42,0,0,1,7.62-7.418,5.439,5.439,0,0,1,1.09-5.478h-27.09Zm25.19-19.542h-16.39a18.371,18.371,0,0,1-1.8,9.87h19.47A40.728,40.728,0,0,1,1540.48,421.644Zm5.97-31.585v5.588a3.547,3.547,0,0,1-3.54,3.543h-3.88a3.547,3.547,0,0,1-3.54-3.543V390.06h-7.3v5.587a3.547,3.547,0,0,1-3.54,3.543h-3.88a3.547,3.547,0,0,1-3.54-3.543V390.06h-5.47v9.13a12.793,12.793,0,0,0,12.78,12.781c16.01,0,15.62.108,17.5-.327,2.38-7.371,6.9-13.081,9.02-21.611Zm28.3-52.951a0.907,0.907,0,0,0,.91-0.913v-1.826a0.907,0.907,0,0,0-.91-0.913c-5.49,0-6.39.269-6.39-.913v-5.478c0-1.15-1.28-.913-2.74-0.913a0.913,0.913,0,0,0-.91.913c0,5.488.27,6.391-.91,6.391-5.49,0-6.39-.269-6.39.913,0,3.394-.67,2.739,6.39,2.739,1.21,0,.91.786,0.91,8.993,0,4.211-.38,3.789,2.74,3.789,1.18,0,.91-1.262.91-3.789,0-8.121-.32-8.993.91-8.993h5.48Zm2.07,9.76a10.074,10.074,0,0,0-4.81,1.2v1.826a3.648,3.648,0,0,1-3.65,3.651h-3.65a3.648,3.648,0,0,1-3.65-3.651v-1.826a10.154,10.154,0,0,0-11.99,16.123l2.16,2.163c0.55-.054,30.3-0.029,30.6,0l2.16-2.162A10.151,10.151,0,0,0,1576.82,346.868Zm4.49,26.759c2.2,0,2.24-3.652,0-3.652h-29.55a1.657,1.657,0,0,0-1.66,1.655c0,1.367.74,2,1.66,2h29.55Zm-25.73,7.3h21.91a1.826,1.826,0,0,0,0-3.651h-21.91A1.826,1.826,0,0,0,1555.58,380.93Zm22.28,7.188,0.01-.017c-0.2-1.125-.36-2.3-0.47-3.519h-21.73c-0.12,1.218-.27,2.381-0.47,3.5l0.02,0.019c-3.91,19.506-18.36,25.581-6.85,51.259h36.33C1596.22,413.631,1581.8,407.809,1577.86,388.118Zm-31.41,58.546h40.17a1.826,1.826,0,0,0,0-3.652h-40.17A1.826,1.826,0,0,0,1546.45,446.664Zm64.91-15.15c-1.71-3.224-1.97-6.35-1.84-9.87h-16.94a40.214,40.214,0,0,1-1.27,9.87h20.05Zm-20.33-19.87c1.87,0.434,1.48.327,17.5,0.327a12.793,12.793,0,0,0,12.78-12.781v-9.13h-5.47v5.587a3.549,3.549,0,0,1-3.55,3.543h-3.88a3.544,3.544,0,0,1-3.53-3.543V390.06h-7.3v5.587a3.549,3.549,0,0,1-3.55,3.543h-3.88a3.544,3.544,0,0,1-3.53-3.543V390.06h-4.61C1584.13,398.556,1588.68,404.355,1591.03,411.644Zm-49.95,38.672a3.769,3.769,0,0,0-3.76,3.766v3.537h58.43v-3.537a3.771,3.771,0,0,0-3.77-3.766h-50.9Zm50.7-3.652a7.423,7.423,0,0,1,7.62,7.418v3.537h23.74V446.554a5.376,5.376,0,0,0-5.37-5.368h-27.08A5.441,5.441,0,0,1,1591.78,446.664Zm-34.84-51.126a2.055,2.055,0,0,1,4.11,0A2.055,2.055,0,0,1,1556.94,395.538Zm1.6,6.217c-4.66,10.517-10.44,16.278-4.79,31.492a1.824,1.824,0,0,1-3.42,1.271c-6.26-16.863.32-23.975,4.88-34.243A1.822,1.822,0,0,1,1558.54,401.755Z" transform="translate(-1498.97 -322.5)"/>
</svg>

