<svg xmlns="http://www.w3.org/2000/svg" width="116.91" height="151.813" viewBox="0 0 116.91 151.813">
  <metadata><?xpacket begin="﻿" id="W5M0MpCehiHzreSzNTczkc9d"?>
<x:xmpmeta xmlns:x="adobe:ns:meta/" x:xmptk="Adobe XMP Core 5.6-c138 79.159824, 2016/09/14-01:09:01        ">
   <rdf:RDF xmlns:rdf="http://www.w3.org/1999/02/22-rdf-syntax-ns#">
      <rdf:Description rdf:about=""/>
   </rdf:RDF>
</x:xmpmeta>
                                                                                                    
                                                                                                    
                                                                                                    
                                                                                                    
                                                                                                    
                                                                                                    
                                                                                                    
                                                                                                    
                                                                                                    
                                                                                                    
                                                                                                    
                                                                                                    
                                                                                                    
                                                                                                    
                                                                                                    
                                                                                                    
                                                                                                    
                                                                                                    
                                                                                                    
                                                                                                    
                           
<?xpacket end="w"?></metadata>
<defs>
    <style>
      .cls-1 {
        fill: #505050;
        fill-rule: evenodd;
      }
    </style>
  </defs>
  <path id="Shape_7_copy_5" data-name="Shape 7 copy 5" class="cls-1" d="M1789.13,414.09h0a32.373,32.373,0,1,1,28.29,48.117C1791.47,462.207,1777.56,433.673,1789.13,414.09Zm12.42-8.18c-19.64,13.1-16.03,42.764,5.95,50.878-2.67-3.83-3.24-8.654-2.44-11.272,0.66-2.182-1.9-6.661-2.6-9-1.55-.8-7.08.055-8.78-0.806-1.79-.905-2.67-4.306-3.09-7a1.844,1.844,0,0,1,.34-1.384c0.71-.933,4.35-5.659,6.72-6.974,1.21-.675,6.05-2.69,6.57-3.092a16.845,16.845,0,0,0,.68-6.248c-0.82-1.123-2.93-3.734-2.95-3.762A1.816,1.816,0,0,1,1801.55,405.91Zm44.38,27.344a13.8,13.8,0,0,1-1.7.451,3.356,3.356,0,0,1,1.09,2.909A28.619,28.619,0,0,0,1845.93,433.254Zm-0.88,4.371c-0.74,1.849-2.8,3.477-4.52,5.258-1.25,1.3-.94,4.054-2.03,6.429A28.665,28.665,0,0,0,1845.05,437.625Zm-10.34,10.864c1.48-1.495.62-5.48,3.2-8.144,1.32-1.371,3.45-3.247,3.75-4.05-1.56-1.7-7.91-5.057-5.72-9.436a1.823,1.823,0,0,1,3.26,1.633c-0.21.421,0.4,1.173,1.18,1.917,0.91-.044,4.18-0.087,5.73-1.275a28.175,28.175,0,0,0-7.33-18.453l-2.33,2.582a1.844,1.844,0,0,1-1.78.554,28.308,28.308,0,0,0-6.82-.894,0.015,0.015,0,0,1,.01.016c0.55,2.141-.08,3.576-1.87,4.265-2.32.893-4.71-.518-6.26-1.12a7.308,7.308,0,0,1-.33,2.73c12.34-1.422,8.53,3.685,15.54,2.778a1.826,1.826,0,1,1,.47,3.622,12.836,12.836,0,0,1-1.6.091c-1.86,0-4.88-.351-6.73-2.379-0.65-.7-3.99-0.868-7.52-0.449a7.277,7.277,0,0,1-1.82,4.4,4.719,4.719,0,0,0-1.08,5.365c3.49,7.175,7.12.355,10.17,3.9,5.06,5.887,1.58,11.193,3.94,13.985A5.063,5.063,0,0,0,1834.71,448.489Zm-0.59,4.685c-1.97.815-4.5,1.054-5.96-.491-1.73-1.829-2.25-5.38-1.99-8.088a8.74,8.74,0,0,0-1.92-5.839c-1.93.252-7.13,2.772-10.88-4.929a8.3,8.3,0,0,1,1.75-9.508,3.976,3.976,0,0,0,.81-2.406c-0.82-1.3.12-4.338,0.14-5.4,0.01-1.133.04-3.242,2.04-4.048,1.29-.517,2.62.062,3.91,0.624a7.972,7.972,0,0,0,2.3.758c-1.41-5.464,4.61-5.008,10.13-3.82l1.73-1.906a28.617,28.617,0,0,0-32.12-3.691,1.764,1.764,0,0,1,.72.531c0.1,0.119,2.36,2.917,3.17,4.057,1.37,1.92.46,9.111-.99,10.685-0.78.839-2.22,1.48-4.51,2.458-3.03,1.289-3.86,1.314-8.12,6.75a13.674,13.674,0,0,0,1.08,3.528c2.75,0.3,9.48-.905,10.51,2.907a22.08,22.08,0,0,0,.9,2.318c1.15,2.715,2.59,6.094,1.73,8.917-0.61,2,.25,9.53,6.56,11.641a1.764,1.764,0,0,1,.51.275A28.509,28.509,0,0,0,1834.12,453.174Zm38.16-4.156a1.825,1.825,0,0,1-3.65,0A1.825,1.825,0,0,1,1872.28,449.018Zm-4.7-41.7c-0.91-2.084-1.72-3.468-2.2-4.381a1.844,1.844,0,0,1,.69-2.714,1.814,1.814,0,0,1,2.44.829l0.22,0.412a47.594,47.594,0,0,1,2.19,4.4c0.82,0.913,4.94,11.941,4.94,23.535a58.632,58.632,0,0,1-2,15.226,1.822,1.822,0,1,1-3.52-.945,55.126,55.126,0,0,0-2.6-35.994C1867.7,407.6,1867.6,407.36,1867.58,407.315Zm-11.6,55.646c-3.27,3.5-13.67,11.012-18.62,7.7a4.032,4.032,0,0,1-1.95-4.17c0.58-2.656,2.62-2.05,7.45-6.79a2.925,2.925,0,0,1-.95-5.091,27.963,27.963,0,0,0,4.42-4.069,1.121,1.121,0,0,1,.18-0.311,35.744,35.744,0,0,0-1.71-43.856,1.824,1.824,0,1,1,2.78-2.363,37.951,37.951,0,0,1,4.3,6.221h0c6.34,10.56,7.28,26.84-.98,40a13.386,13.386,0,0,1,6.32,5.024c16.94-25.863,4.8-60.434-24.01-70.62-9.54,8.169-22.37,7.924-31.68.021-28.73,10.145-40.74,44.952-23.92,70.607a13.36,13.36,0,0,1,6.32-5.032,39.385,39.385,0,0,1-.98-40h0a38.579,38.579,0,0,1,4.3-6.221,1.824,1.824,0,1,1,2.78,2.363,35.8,35.8,0,0,0-1.52,44.167,27.842,27.842,0,0,0,4.41,4.069c0.08,0.058.16,0.124,0.24,0.195a2.926,2.926,0,0,1-1.19,4.9,31.353,31.353,0,0,0,5.79,4.477,3.577,3.577,0,0,1,1.66,2.31,3.528,3.528,0,0,1-.52,2.738,5.228,5.228,0,0,1-4.47,2.32c-2.41,0-5-1.3-7.22-2.41-29.9-15-29.23-75.649,14.19-88.294a2.334,2.334,0,0,1,.37-0.068,2.557,2.557,0,0,1,.35.007,2.3,2.3,0,0,1,.34.074,2.219,2.219,0,0,1,.33.14,2.7,2.7,0,0,1,.3.209c9.63,8.177,20.63,7.3,28.51.01,0.02-.018.04-0.029,0.06-0.046a1.324,1.324,0,0,1,.16-0.118c0.05-.032.09-0.063,0.14-0.091s0.11-.053.16-0.077,0.11-.045.16-0.063,0.12-.032.18-0.045,0.11-.022.16-0.029a1.882,1.882,0,0,1,.19-0.011,1.608,1.608,0,0,1,.17,0,1.651,1.651,0,0,1,.17.023,1.4,1.4,0,0,1,.19.043,0.532,0.532,0,0,1,.07.016C1869.39,392.717,1879.32,437.556,1855.98,462.961Zm-7.29-9.63a26.689,26.689,0,0,1-3.27,3.2,3.119,3.119,0,0,1,.74,5.029,34.939,34.939,0,0,1-7.14,5.707c1.23,1.6,4.81-.314,6.96-1.394a25.408,25.408,0,0,0,8.93-7.368A9.925,9.925,0,0,0,1848.69,453.331Zm-59.86,12.533c2.24,1.124,5.28,2.652,6.61,1.762a1.478,1.478,0,0,0,.38-0.37,31.46,31.46,0,0,1-3-2.011,34.589,34.589,0,0,1-4.2-3.743,3.113,3.113,0,0,1,.79-4.968,26.643,26.643,0,0,1-3.27-3.2,9.909,9.909,0,0,0-6.22,5.183A24.9,24.9,0,0,0,1788.83,465.864Zm50.79-107.8a0.929,0.929,0,0,1,.02.167,1.349,1.349,0,0,1,0,.289c-0.06.712-.14,1.183-0.24,1.87-1.42,9.612-8.79,23.907-22.24,23.907-14.42-.325-23.07-17.507-22.21-33.02a1.828,1.828,0,0,1,3.65.206c-0.07,1.174-.07,2.018-0.04,2.967a25.281,25.281,0,0,0,23.5-19.993,1.828,1.828,0,0,1,3.58.745,28.109,28.109,0,0,1-.75,2.778c7.06,6.124,12.63,14.386,14.64,19.725A1.885,1.885,0,0,1,1839.62,358.059Zm-16.16-16.478a28.392,28.392,0,0,1-10.6,12c1.91,1.378.76,3.485-.84,3.485-1.13,0-1.21-.847-2.3-0.862a1.961,1.961,0,0,0-1.17.422,1.826,1.826,0,0,1-2.31.056,30.33,30.33,0,0,1-7.45,1.4c0.93,9.929,7.74,22.575,18.84,22.552,10.51-.237,17.12-12.016,18.33-21.988A52.5,52.5,0,0,0,1823.46,341.581Zm1.68,14.627a1.754,1.754,0,0,0-1.11.423,1.832,1.832,0,0,1-2.58-.2c-1.6-1.866,1.12-3.84,3.64-3.877a5.467,5.467,0,0,1,3.59,1.3,1.825,1.825,0,1,1-2.37,2.776,1.794,1.794,0,0,0-1.14-.424h-0.03ZM1824.3,369.9a1.827,1.827,0,0,1-.37,2.556,10.047,10.047,0,0,1-12.71,0,1.828,1.828,0,0,1,2.19-2.928,6.424,6.424,0,0,0,8.34,0A1.821,1.821,0,0,1,1824.3,369.9Zm-43.95-26.758a1.825,1.825,0,1,1,1.83,1.826A1.828,1.828,0,0,1,1780.35,343.137Zm-6.06,21.183a1.825,1.825,0,0,1-1.46-.735c-2.03-2.728,3.77-3.173,6.43-9.9a13.451,13.451,0,0,0,.81-5.175,1.831,1.831,0,0,1,1.83-1.767l0.06,0a1.822,1.822,0,0,1,1.76,1.884c-0.19,5.782-1.86,10.507-8.34,15.329A1.823,1.823,0,0,1,1774.29,364.32Zm-5.8,33.141a1.825,1.825,0,0,1,3.65,0A1.825,1.825,0,0,1,1768.49,397.461Zm1.03,5.346a55.062,55.062,0,0,0-5.04,40.861,1.823,1.823,0,1,1-3.52.947,58.658,58.658,0,0,1,2.82-38.426,51.791,51.791,0,0,1,2.54-5.142A1.827,1.827,0,1,1,1769.52,402.807Zm88.46-34.013a23.584,23.584,0,0,1-7.01,11.909,22.427,22.427,0,0,1-4.69,3.231,1.828,1.828,0,0,1-1.68-3.247,18.739,18.739,0,0,0,3.93-2.7,19.682,19.682,0,0,0,5.59-8.938c-7.58-6.055-10.03-12.551-10.28-20.183a24.149,24.149,0,0,0-1.53-8.716,24.948,24.948,0,0,0-7.75-11.191c-13.83-10.881-42.68-6.493-43.54,19.908-0.24,7.548-2.62,14.059-10.28,20.183a19.061,19.061,0,0,0,9.52,11.638,1.828,1.828,0,0,1-.84,3.449c-1.24,0-4.47-2.485-5.53-3.433a23.59,23.59,0,0,1-7.01-11.91,1.823,1.823,0,0,1,.68-1.906,24.48,24.48,0,0,0,8.49-10.516c2.46-6.215.09-9.561,3.08-17.507,4.68-12.459,14.45-18.559,27.61-19.081,0.17-.007.37-0.012,0.65-0.019l0.73,0.018c9.3,0.37,15.3,3.633,18.7,6.306a28.434,28.434,0,0,1,8.91,12.776c3,7.966.61,11.267,3.08,17.507a24.48,24.48,0,0,0,8.49,10.516A1.824,1.824,0,0,1,1857.98,368.794Zm-6.48-30.152a1.787,1.787,0,0,1-.64.118,1.821,1.821,0,0,1-1.71-1.183,31.922,31.922,0,0,0-10.07-14.359,1.826,1.826,0,1,1,2.26-2.869,35.409,35.409,0,0,1,11.23,15.942A1.834,1.834,0,0,1,1851.5,338.642Zm2.61,3.454a1.825,1.825,0,1,1-1.83-1.826A1.828,1.828,0,0,1,1854.11,342.1Z" transform="translate(-1758.97 -319.75)"/>
</svg>

