<svg xmlns="http://www.w3.org/2000/svg" width="100" height="139.093" viewBox="0 0 100 139.093">
  <metadata><?xpacket begin="﻿" id="icon"?>
<x:xmpmeta xmlns:x="adobe:ns:meta/" x:xmptk="Adobe XMP Core 5.6-c138 79.159824, 2016/09/14-01:09:01        ">
   <rdf:RDF xmlns:rdf="http://www.w3.org/1999/02/22-rdf-syntax-ns#">
      <rdf:Description rdf:about=""/>
   </rdf:RDF>
</x:xmpmeta>
                                                                                                    
                                                                                                    
                                                                                                    
                                                                                                    
                                                                                                    
                                                                                                    
                                                                                                    
                                                                                                    
                                                                                                    
                                                                                                    
                                                                                                    
                                                                                                    
                                                                                                    
                                                                                                    
                                                                                                    
                                                                                                    
                                                                                                    
                                                                                                    
                                                                                                    
                                                                                                    
                           
<?xpacket end="w"?></metadata>
<defs>
    <style>
      .cls-1 {
        fill: #505050;
        fill-rule: evenodd;
      }
    </style>
  </defs>
  <path id="Shape_7_copy_9" data-name="Shape 7 copy 9" class="cls-1" d="M1044.1,638.97a1.828,1.828,0,0,1-2.87,2.264,46.5,46.5,0,0,1-1.44-55.522,1.825,1.825,0,0,1,2.98,2.109A42.839,42.839,0,0,0,1044.1,638.97Zm-0.92-57.5A1.825,1.825,0,1,1,1045,583.3,1.82,1.82,0,0,1,1043.18,581.472Zm-16.91,77.46h16.91a1.824,1.824,0,0,1,1.81,1.657c5.21-3.874,15.2-7.06,21.57-8.322a5.231,5.231,0,0,1,2.18.343v-2.692c-29.07-7.043-39.31-43.435-18.1-64.638,24.36-24.364,65.75-6.743,65.75,27.232A38.456,38.456,0,0,1,1087,649.917v3.5c2.75-.241,4.92-0.211,6.26,1.607,1.17,1.574,1.04,3.687.29,5.731h2.58a7.3,7.3,0,0,1,5,12.612,7.29,7.29,0,0,1,0,11.295,7.288,7.288,0,0,1-3.27,12.4,7.289,7.289,0,0,1-6.19,11.171c-6.1,0-5.18.012-5.75-.022a9.1,9.1,0,0,1-13.33,3.136c-4.88.9-14.27,0-15.19-.137a43.679,43.679,0,0,1-12.4-4v1.027a1.82,1.82,0,0,1-1.82,1.826h-5.85a1.826,1.826,0,1,1,0-3.652h4.02V662.584h-15.08A1.826,1.826,0,1,1,1026.27,658.932Zm74.96-23.06a33.026,33.026,0,0,0,0-46.72h0a33.04,33.04,0,0,0-56.4,23.36C1044.83,641.743,1080.42,656.678,1101.23,635.872Zm-28.84,14.747V653.3a47.939,47.939,0,0,0,10.96.452v-3.136A38.758,38.758,0,0,1,1072.39,650.619Zm23.74,13.791h-4.58a12.559,12.559,0,0,1-6.24,4.6,3.66,3.66,0,0,0,3.52,2.7h7.3A3.652,3.652,0,0,0,1096.13,664.41Zm4.03,14.607a3.685,3.685,0,0,0-4.03-3.652h-10.96a3.652,3.652,0,0,0,0,7.3h11.34A3.657,3.657,0,0,0,1100.16,679.017Zm-13.81,25.563h5.32a3.652,3.652,0,1,0,0-7.3h-5.32A3.652,3.652,0,0,0,1086.35,704.58Zm-1.55-10.955h11.33a3.652,3.652,0,0,0,0-7.3h-10.96C1079.68,686.321,1080.09,693.625,1084.8,693.625Zm-10.51,14.424a5.448,5.448,0,0,0,7.93-.819,1.76,1.76,0,0,1-.05-0.325,7.282,7.282,0,0,1-1.3-10.784,7.29,7.29,0,0,1-.7-11.8,7.293,7.293,0,0,1,2.59-12.194,7.207,7.207,0,0,1-1.02-2.344,21.184,21.184,0,0,1-5.1-.116,24.654,24.654,0,0,1-4.25,9.756C1072.39,706.313,1071.77,705.667,1074.29,708.049ZM1045,703.217c5.3,2.243,10.82,5.708,24.72,4.785-1.3-2.569-.98-2.161-0.98-24.514a25.614,25.614,0,0,1-5.09,3.538,1.825,1.825,0,1,1-1.69-3.236,21.412,21.412,0,0,0,11.36-16.48,1.828,1.828,0,0,1,2.26-1.557c0.78,0.2,7.8,1.816,11.97-2.272,2.29-2.246,3.35-5.506,2.78-6.284-0.31-.409-2.45-0.2-4.18-0.027a53.555,53.555,0,0,1-19.28-1.241c-15.78,3.223-20.95,8.849-21.87,9.272v38.016Zm11.23-71.078h0a1.832,1.832,0,0,1-.45-1.119v-0.1h0a1.463,1.463,0,0,1,.01-0.21c1.4-12.467,11.53-15.325,12.88-15.325,0.99-.342,7.84,7.192,17.17.393a1.828,1.828,0,0,1,1.08-.357,1.355,1.355,0,0,1,.53.076c7.22,1.953,11.51,7.943,12.27,15.482a1.818,1.818,0,0,1-.48,1.422A29.2,29.2,0,0,1,1056.23,632.139Zm30.77,4.232v-8.264a1.825,1.825,0,1,1,3.65,0v6.519a25.516,25.516,0,0,0,5.34-4.109c-0.85-5.955-4.18-9.761-8.74-11.274a16.352,16.352,0,0,1-18.9-.043c-4.51,1.449-7.91,5.162-8.82,11.116a25.38,25.38,0,0,0,5.56,4.318v-6.527a1.825,1.825,0,0,1,3.65,0v8.268A25.342,25.342,0,0,0,1087,636.371Zm3.31-29.928c-1.87,6.41-7.68,10.29-12.2,10.29-6.06,0-11.12-4.7-12.75-10.29-2.24-2.34-2.95-6.666-1-8.542-1.38-6.25,1.81-14.54,13.28-14.6,3.64,0.015,6.96.5,9.8,2.829a11.782,11.782,0,0,1,3.86,11.757C1093.29,599.74,1092.53,604.13,1090.31,606.443Zm-12.67-19.494c-4.67.034-8.48,1.511-9.67,6.091,3.61-2.671,6.38.5,10.26,0.286,3.34-.181,6.15-2.754,9.47-0.282C1086.43,588.2,1082.43,586.969,1077.64,586.949Zm11.12,13.63a0.215,0.215,0,0,1-.05-0.018,1.806,1.806,0,0,1-1.33-1.232c-2.37-7.937-4.3,0-14.3-3.242-1.25-.4-1.87-0.587-2.5-0.353-2.23.834-1.62,4.4-3.67,4.843a4.2,4.2,0,0,0,1.28,3.531,1.826,1.826,0,0,1,.57.928,11.063,11.063,0,0,0,3.45,5.654c6.94,5.916,13.4-.464,14.7-5.654a1.809,1.809,0,0,1,.56-0.928A4.221,4.221,0,0,0,1088.76,600.579Zm-50.6,99.857c-1.11,4.028-7.21,2.34-6.09-1.7S1039.29,696.4,1038.16,700.436Zm71.06-58.709a1.826,1.826,0,0,1,0,3.652A1.826,1.826,0,0,1,1109.22,641.727Zm11.56-29.215a42.507,42.507,0,0,0-8.02-24.989,1.828,1.828,0,0,1,2.97-2.133,46.594,46.594,0,0,1-.73,55.216,1.824,1.824,0,1,1-2.9-2.213A42.367,42.367,0,0,0,1120.78,612.512Z" transform="translate(-1024.44 -573.938)"/>
</svg>

