<svg xmlns="http://www.w3.org/2000/svg" width="146.31" height="142.437" viewBox="0 0 146.31 142.437">
  <metadata><?xpacket begin="﻿" id="W5M0MpCehiHzreSzNTczkc9d"?>
<x:xmpmeta xmlns:x="adobe:ns:meta/" x:xmptk="Adobe XMP Core 5.6-c138 79.159824, 2016/09/14-01:09:01        ">
   <rdf:RDF xmlns:rdf="http://www.w3.org/1999/02/22-rdf-syntax-ns#">
      <rdf:Description rdf:about=""/>
   </rdf:RDF>
</x:xmpmeta>
                                                                                                    
                                                                                                    
                                                                                                    
                                                                                                    
                                                                                                    
                                                                                                    
                                                                                                    
                                                                                                    
                                                                                                    
                                                                                                    
                                                                                                    
                                                                                                    
                                                                                                    
                                                                                                    
                                                                                                    
                                                                                                    
                                                                                                    
                                                                                                    
                                                                                                    
                                                                                                    
                           
<?xpacket end="w"?></metadata>
<defs>
    <style>
      .cls-1 {
        fill: #505050;
        fill-rule: evenodd;
      }
    </style>
  </defs>
  <path id="Shape_7_copy_2" data-name="Shape 7 copy 2" class="cls-1" d="M1383.24,173.087a1.828,1.828,0,0,1,1.83,1.825,56.942,56.942,0,0,1-16.77,40.529,1.82,1.82,0,0,1-1.29.534,1.826,1.826,0,0,1-1.29-3.117,53.312,53.312,0,0,0,15.7-37.946A1.819,1.819,0,0,1,1383.24,173.087Zm-18.36,44.537a2.055,2.055,0,1,1-2.05-2.054A2.054,2.054,0,0,1,1364.88,217.624Zm13.17-77.645a1.825,1.825,0,0,1-1.5.523l-11.44-1.272-3.75,3.748a46.01,46.01,0,1,1-2.61-2.554l3.77-3.776-1.27-11.447a1.836,1.836,0,0,1,.52-1.493l16.43-16.427a1.828,1.828,0,0,1,3.11,1.09l1.2,10.868,10.87,1.208a1.845,1.845,0,0,1,1.53,1.21,1.826,1.826,0,0,1-.44,1.9Zm-24.68,10.988a35.078,35.078,0,0,1-50.42,48.768,35.088,35.088,0,0,1,24.82-59.894,34.787,34.787,0,0,1,22.97,8.593l5.42-5.422a42.808,42.808,0,1,0,2.62,2.548Zm-16.92,32.658a12.309,12.309,0,1,1-1.92-18.98l5.35-5.356a19.753,19.753,0,0,0-26.12,1.636,19.8,19.8,0,1,0,28,28.007,19.773,19.773,0,0,0,.79-27.144l-5.31,5.3A12.233,12.233,0,0,1,1336.45,183.625Zm-9.24-11.664,4.66-4.658a8.657,8.657,0,0,0-12.75,7.61,8.65,8.65,0,0,0,17.3,0,8.5,8.5,0,0,0-1.78-5.219l-4.85,4.849a1.823,1.823,0,0,1-2.58,0A1.831,1.831,0,0,1,1327.21,171.961Zm24,2.946a23.458,23.458,0,1,1-8.72-18.229l5.66-5.656a31.4,31.4,0,0,0-42.62,1.682,31.431,31.431,0,1,0,53.65,22.193,31.133,31.133,0,0,0-8.39-21.348l-5.64,5.637A23.2,23.2,0,0,1,1351.21,174.907Zm26.89-62.357-13.12,13.12,0.85,7.672,10.66-10.658,2.46-2.462Zm3.43,10.254-11.02,11.025-2.1,2.095,7.67,0.852,13.12-13.119Zm-46.78-3.78a1.826,1.826,0,1,1,0,3.652h-31.04a1.826,1.826,0,1,1,0-3.652h31.04Zm-49.22,10.933c-0.02,0-.05,0-0.08,0a1.82,1.82,0,0,1-1.29-.535l-5.48-5.478a1.825,1.825,0,1,1,2.58-2.582l4.07,4.064,7.85-9.42a1.824,1.824,0,1,1,2.8,2.339l-9.13,10.956A1.814,1.814,0,0,1,1285.53,129.957Zm2.66,5.5h-9.13a6.394,6.394,0,0,1-6.39-6.391v-9.129a6.394,6.394,0,0,1,6.39-6.391h9.13a6.311,6.311,0,0,1,3.7,1.187,0.379,0.379,0,0,0-.11.109l-2.26,2.7a2.756,2.756,0,0,0-1.33-.347h-9.13a2.745,2.745,0,0,0-2.74,2.739v9.129a2.745,2.745,0,0,0,2.74,2.739h9.13a2.745,2.745,0,0,0,2.74-2.739v-1.807l3.65-4.383v6.19A6.4,6.4,0,0,1,1288.19,135.457Zm-9.51,15.9a1.821,1.821,0,0,1,2.56-2.59s0-.007.01-0.01l3.53,3.533a1.821,1.821,0,0,1-2.56,2.589v0.011Zm1.84,11.494h-1.46a6.39,6.39,0,0,1-6.39-6.391v-9.129a6.39,6.39,0,0,1,6.39-6.391h9.28a2.392,2.392,0,0,1,2.39,2.394v1.258h-11.67a2.745,2.745,0,0,0-2.74,2.739v9.129a2.745,2.745,0,0,0,2.74,2.739h1.53v0a0.117,0.117,0,0,0,.02,0,1.836,1.836,0,0,1,1.81,2.133A1.9,1.9,0,0,1,1280.52,162.846Zm67.01-32.867a1.829,1.829,0,0,1-1.82-1.826V98.938h-18.26v3.652a1.828,1.828,0,0,1-1.83,1.826h-38.34a1.828,1.828,0,0,1-1.83-1.826V98.938h-21.91V203.016h16.43a1.826,1.826,0,1,1,0,3.652h-18.26a1.829,1.829,0,0,1-1.82-1.826V97.113a1.829,1.829,0,0,1,1.82-1.826h23.74V92.852a6.7,6.7,0,0,1,6.7-6.7h2.43V83.723a4.872,4.872,0,0,1,4.87-4.869h14a4.879,4.879,0,0,1,4.87,4.869v2.434h2.43a6.708,6.708,0,0,1,6.7,6.7v2.434h20.08a1.831,1.831,0,0,1,1.83,1.826v31.04a1.7,1.7,0,0,1-.21.84A1.815,1.815,0,0,1,1347.53,129.979Zm-32.86-46.257a1.222,1.222,0,0,0-1.22-1.217h-14a1.222,1.222,0,0,0-1.22,1.217v4.869a1.222,1.222,0,0,0,1.22,1.218h14a1.222,1.222,0,0,0,1.22-1.218V83.723Zm9.13,9.13a3.051,3.051,0,0,0-3.05-3.043h-2.61a4.855,4.855,0,0,1-4.69,3.652h-14a4.876,4.876,0,0,1-4.7-3.652h-2.6a3.051,3.051,0,0,0-3.05,3.043v7.912h34.7V92.852Zm-73.04,29.824a1.826,1.826,0,0,1,1.82,1.825v54.778a1.825,1.825,0,1,1-3.65,0V124.5A1.828,1.828,0,0,1,1250.76,122.676Zm0-1.6a2.055,2.055,0,1,1,2.05-2.054A2.057,2.057,0,0,1,1250.76,121.078Z" transform="translate(-1248.69 -78.844)"/>
</svg>

