<svg xmlns="http://www.w3.org/2000/svg" width="142.44" height="148.125" viewBox="0 0 142.44 148.125">
  <metadata><?xpacket begin="﻿" id="W5M0MpCehiHzreSzNTczkc9d"?>
<x:xmpmeta xmlns:x="adobe:ns:meta/" x:xmptk="Adobe XMP Core 5.6-c138 79.159824, 2016/09/14-01:09:01        ">
   <rdf:RDF xmlns:rdf="http://www.w3.org/1999/02/22-rdf-syntax-ns#">
      <rdf:Description rdf:about=""/>
   </rdf:RDF>
</x:xmpmeta>
                                                                                                    
                                                                                                    
                                                                                                    
                                                                                                    
                                                                                                    
                                                                                                    
                                                                                                    
                                                                                                    
                                                                                                    
                                                                                                    
                                                                                                    
                                                                                                    
                                                                                                    
                                                                                                    
                                                                                                    
                                                                                                    
                                                                                                    
                                                                                                    
                                                                                                    
                                                                                                    
                           
<?xpacket end="w"?></metadata>
<defs>
    <style>
      .cls-1 {
        fill: #505050;
        fill-rule: evenodd;
      }
    </style>
  </defs>
  <path id="Shape_7_copy_3" data-name="Shape 7 copy 3" class="cls-1" d="M1637.99,216.6H1500.54a1.819,1.819,0,0,1-1.8-1.607,96.876,96.876,0,0,1,7.17-49.62,1.829,1.829,0,0,1,2.62-.84,30.014,30.014,0,0,0,14.61,4.346,1.827,1.827,0,0,1,1.56,1,101.4,101.4,0,0,1,9.98,30.292h10.86a1.82,1.82,0,0,1,1.62.995l2.44-.666c0.37-.1.75-0.183,1.13-0.256l3.75-.648a4.933,4.933,0,0,1,4.36.9,2.844,2.844,0,0,1,.7,3.624l-0.94,1.689,7.22,1.516a4.407,4.407,0,0,1,3.49,4.3,4.165,4.165,0,0,1-.23,1.324h4.79l2.01-2.532a5.409,5.409,0,0,1-.44-1.44,5.185,5.185,0,0,1,1.02-3.953l2.46-3.241a5.325,5.325,0,0,1,5.06-2l0.3,0.05,4.45-5.595a1.826,1.826,0,0,1,2.86,2.271l-3.19,4.007,3.07,0.508a1.807,1.807,0,0,1,1.54-.858h10.85a101.6,101.6,0,0,1,9.99-30.292,1.827,1.827,0,0,1,1.56-1,30.077,30.077,0,0,0,14.6-4.346,1.8,1.8,0,0,1,1.5-.173,1.833,1.833,0,0,1,1.13,1.013,96.793,96.793,0,0,1,7.17,49.62A1.824,1.824,0,0,1,1637.99,216.6Zm-99.76-12.782h-9.27c-5.14,0-8.99-5.341-8.99-10.116V182.324a1.825,1.825,0,1,1,3.65,0V193.7c0,2.931,2.39,6.464,5.34,6.464h2.03a98.434,98.434,0,0,0-9.06-27.69,33.541,33.541,0,0,1-13.44-3.78,93.082,93.082,0,0,0-6.3,44.252h11.56a17.032,17.032,0,0,1-6.56-13.43v-14.1a1.825,1.825,0,0,1,3.65,0v14.1a13.449,13.449,0,0,0,13.43,13.43h13.96v-9.13Zm5.33,0h-1.68v9.13h1.68v-9.13Zm21.51,7.085-8.01-1.68a3.107,3.107,0,0,1-2.16-1.726,3.077,3.077,0,0,1,.11-2.757l0.93-1.661a1.257,1.257,0,0,0-.52.036,0.858,0.858,0,0,1-.21.055l-3.85.666c-0.27.055-.54,0.11-0.81,0.183l-3.19.867v7.761l5.17,0.3,12.53-.685a0.643,0.643,0,0,0,.6-0.639A0.737,0.737,0,0,0,1565.07,210.9Zm26.12-6.227-5.38-.892-0.43.539a1.817,1.817,0,0,1-1.43.691,1.794,1.794,0,0,1-1.13-.4,1.829,1.829,0,0,1-.63-0.957,1.636,1.636,0,0,0-.36.331l-2.47,3.241a1.663,1.663,0,0,0-.32,1.214,1.623,1.623,0,0,0,.65,1.068c1.47,1.077,3.18,2.31,4.24,3.077a1.944,1.944,0,0,0,1.11.356h6.15v-8.272Zm5.47-.858h-1.82v9.13h1.82v-9.13ZM1636,191.1a93.543,93.543,0,0,0-5.94-22.4,33.515,33.515,0,0,1-13.45,3.78,98.778,98.778,0,0,0-9.06,27.69h2.03c2.96,0,5.34-3.533,5.34-6.464V182.324a1.83,1.83,0,0,1,3.66,0V193.7c0,4.775-3.85,10.116-9,10.116h-9.26v9.13h13.96a13.449,13.449,0,0,0,13.43-13.43v-14.1a1.825,1.825,0,1,1,3.65,0v14.1a17.041,17.041,0,0,1-6.57,13.43h11.57A93.356,93.356,0,0,0,1636,191.1Zm-1.94-45.281a8.075,8.075,0,0,1-2,4.718V160.7a1.83,1.83,0,0,1-3.66,0v-7.816a8.626,8.626,0,0,1-2.45.365h0a1.826,1.826,0,0,1-.01-3.652c3.55-.012,5.01-3.488,4.29-4.894-1.04-2.042-3.25-.178-3.98,2a1.828,1.828,0,0,1-3.51-.183l-0.61-2.666a1.6,1.6,0,0,0-1.92-1.227,18.983,18.983,0,0,1-3.84.421,18.684,18.684,0,0,1-7.13-1.341,40.692,40.692,0,0,0,.23,16.514c0.26,1.054.32,1.993,1.31,2.3a8.7,8.7,0,0,0,9.46-3.023,1.827,1.827,0,0,1,2.85,2.287,13.506,13.506,0,0,1-6.09,4.21v2.045a1.825,1.825,0,1,1-3.65,0v-1.464a12.091,12.091,0,0,1-3.67-.572c-3.09-.975-3.5-3.892-3.76-4.926a30.513,30.513,0,0,1-.97-6.124,50.916,50.916,0,0,1,.94-13.143,1.658,1.658,0,0,1-.21-0.413,12.744,12.744,0,0,1-2.04-3.366,13.039,13.039,0,0,1-.88-3.542,1.817,1.817,0,0,1,.51-1.47,21.826,21.826,0,0,1,5.65-4.151c9.3-4.718,22.16-3.079,26.07,6.956a15.313,15.313,0,0,1-.21,11.147A1.816,1.816,0,0,1,1634.06,145.817Zm-2.47-10.667c-3.66-9.4-17.73-8.982-25.07-2.193a8.407,8.407,0,0,0,.51,1.7,9.3,9.3,0,0,0,1.81,2.84,15.333,15.333,0,0,0,10.6,1.56,5.309,5.309,0,0,1,5.78,2.7c2.05-1.831,4.75-2.234,6.86-.473A11.061,11.061,0,0,0,1631.59,135.15Zm-75.03,18.55a16.83,16.83,0,0,1,.84-17.122,15.523,15.523,0,0,1,3.7-3.877,10.035,10.035,0,0,1,20,0,16.58,16.58,0,0,1,4.54,21C1582.6,173.23,1559.6,173.238,1556.56,153.7Zm3.63-.822a2.49,2.49,0,0,1,.04.391,0.694,0.694,0,0,1-.02.143c1.12,6.528,5.34,11.246,10.17,11.267h1.46c4.82-.021,9.06-4.768,10.15-11.327v-0.245c0.06-.62.43-6.152-3.7-9.664a11.551,11.551,0,0,0-14.38,0C1560.09,146.69,1560.12,151.648,1560.19,152.878Zm15.42-23.864a6.348,6.348,0,0,0-10.02,1.3,18.046,18.046,0,0,1,5.39-1.075s0.08,0,.09,0a1.251,1.251,0,0,0,.15,0,18.063,18.063,0,0,1,5.39,1.074A6.858,6.858,0,0,0,1575.61,129.014Zm6.15,9.593c-3.74-5.6-10.29-5.713-10.57-5.716h-0.11l-0.09-1.827v1.826c-0.26,0-6.82.119-10.56,5.716a12.843,12.843,0,0,0-2.12,6.078,14.084,14.084,0,0,1,12.79-7.4,14.512,14.512,0,0,1,9.56,3.373,13.5,13.5,0,0,1,3.22,4.027A12.747,12.747,0,0,0,1581.76,138.607Zm4.86,47.178v7.3a1.825,1.825,0,1,1-3.65,0v-7.3A1.825,1.825,0,1,1,1586.62,185.785Zm-27.39,0v8.9a1.825,1.825,0,1,1-3.65,0v-8.9A1.825,1.825,0,1,1,1559.23,185.785Zm-9.79,10.711a1.933,1.933,0,0,1-.24.015c-1.75,0-1.82-1.633-1.94-2.546-0.92-7.039-1.11-8.5,1.66-14.74,2.79-6.217,7.01-10.361,13.69-11.556a1.822,1.822,0,0,1,2.13,2.066,4.5,4.5,0,0,0-.04.68c0,2.715,4.36,5.562,6.7,6.8,2.16-1.245,6.1-4.072,6.1-6.8,0-.913-0.28-1.5.49-2.257a1.814,1.814,0,0,1,1.59-.489,17.449,17.449,0,0,1,6.15,2.314,19.63,19.63,0,0,1,7.55,9.233c2.2,4.965,2.56,6.847,2.1,11.194a1.83,1.83,0,0,1-3.64-.385c0.4-3.7.16-4.916-1.8-9.317a15.946,15.946,0,0,0-6.13-7.617,12.986,12.986,0,0,0-2.8-1.306c-1.08,5.17-7.92,8.7-8.76,9.117a1.826,1.826,0,0,1-1.57.026c-0.9-.414-8.32-3.94-9.48-9.146a13.386,13.386,0,0,0-2.81,1.3,16.052,16.052,0,0,0-6.14,7.63c-2.44,5.5-2.27,5.887-1.24,13.733A1.823,1.823,0,0,1,1549.44,196.5Zm51.94-74.053a1.819,1.819,0,0,1-1.8,2.766,20.806,20.806,0,0,1-11.83-5.916,33.716,33.716,0,0,1-12.47.247,38.129,38.129,0,0,1-19.05.818c-5.19,5.317-12.03,6.768-13.65,6.768a1.824,1.824,0,0,1-1.55-2.783,15.549,15.549,0,0,0,2.27-9.735C1524.64,100.471,1537.84,76,1564.19,76a36.212,36.212,0,0,1,16.42,3.8c23.54-.156,35.26,21.725,18.8,34.3A13.476,13.476,0,0,0,1601.38,122.443Zm-37.19-42.791c-23.13,0-34.76,20.579-18.12,32.465a1.8,1.8,0,0,1,.75,1.217,19.112,19.112,0,0,1-.93,9.31,19.459,19.459,0,0,0,8.35-5.51c1.36-1.548,2.5.406,9.95,0.406,14.31,0,25.96-8.5,25.96-18.944S1578.5,79.652,1564.19,79.652Zm22.64,4.4c10.79,9.771,8.81,24.328-4.28,32.249,5.35-.3,5.97-1.6,7.18-0.232a17.04,17.04,0,0,0,6.83,4.638c-1.07-3.275-1.28-8.134.07-9.084,4.39-3.141,6.81-7.3,6.81-11.723C1603.44,92.343,1596.4,85.974,1586.83,84.053Zm-11.99,18.106a2.754,2.754,0,0,1,0-5.508C1578.48,96.651,1578.48,102.159,1574.84,102.159Zm-13.13-2.754c0-3.64,5.5-3.638,5.5,0S1561.71,103.044,1561.71,99.405Zm-10.67,0c0-3.64,5.51-3.639,5.51,0S1551.04,103.044,1551.04,99.405Zm-15.63,29.3a10.182,10.182,0,0,1-.01,7.609,9.423,9.423,0,0,1-2.71,3.635,44.857,44.857,0,0,1-.07,19.124c-0.37,1.518-.8,5.5-7.42,5.5v1.464a1.825,1.825,0,1,1-3.65,0V164c-3.09-.989-8.36-4.729-5.81-6.782a1.831,1.831,0,0,1,2.57.278,9.231,9.231,0,0,0,6.26,3.4c0.97,0.075,3.85.074,4.23-1.549a31.338,31.338,0,0,0,1.15-6.612,47.309,47.309,0,0,0-.62-10.887,9.989,9.989,0,0,1-1.63.452,1.892,1.892,0,0,1-.3.021c-7.49,2.095-10.35-1.337-10.99,1.525l-0.6,2.666a1.827,1.827,0,0,1-3.51.183c-0.74-2.18-2.96-4.035-3.99-2-0.72,1.423.77,4.882,4.3,4.894a1.826,1.826,0,0,1-.01,3.652,8.666,8.666,0,0,1-2.46-.365V160.7a1.825,1.825,0,0,1-3.65,0v-10.16a8.009,8.009,0,0,1-2-4.717c-1.27-.8-2.97-6.783-0.94-11.994,3.23-8.264,12.08-10.382,19.33-6.915a12.086,12.086,0,0,0,4.39,1.376C1532.4,128.819,1534.4,126.2,1535.41,128.707Zm-2.99,2.9a17.8,17.8,0,0,1-5.53.306,15.4,15.4,0,0,1-5.58-1.714,9.718,9.718,0,0,0-4.29-1.235c-8.3-.314-11.7,6.391-10.55,12.316,2.09-1.769,4.81-1.351,6.85.473a5.316,5.316,0,0,1,5.79-2.7,15.161,15.161,0,0,0,3.09.339h0.11a15.581,15.581,0,0,0,7.92-2.194c0.05-.025.09-0.039,0.13-0.06a5.842,5.842,0,0,0,1.67-2.238A6.166,6.166,0,0,0,1532.42,131.611Zm-17.93,90.463a1.828,1.828,0,0,1,1.83-1.825h93.13a1.826,1.826,0,0,1,0,3.651h-93.13A1.828,1.828,0,0,1,1514.49,222.074Zm98.38,0a2.055,2.055,0,1,1,2.05,2.055A2.055,2.055,0,0,1,1612.87,222.074Z" transform="translate(-1498.06 -76)"/>
</svg>

