<svg xmlns="http://www.w3.org/2000/svg" width="148.85" height="128.594" viewBox="0 0 148.85 128.594">
  <metadata><?xpacket begin="﻿" id="W5M0MpCehiHzreSzNTczkc9d"?>
<x:xmpmeta xmlns:x="adobe:ns:meta/" x:xmptk="Adobe XMP Core 5.6-c138 79.159824, 2016/09/14-01:09:01        ">
   <rdf:RDF xmlns:rdf="http://www.w3.org/1999/02/22-rdf-syntax-ns#">
      <rdf:Description rdf:about=""/>
   </rdf:RDF>
</x:xmpmeta>
                                                                                                    
                                                                                                    
                                                                                                    
                                                                                                    
                                                                                                    
                                                                                                    
                                                                                                    
                                                                                                    
                                                                                                    
                                                                                                    
                                                                                                    
                                                                                                    
                                                                                                    
                                                                                                    
                                                                                                    
                                                                                                    
                                                                                                    
                                                                                                    
                                                                                                    
                                                                                                    
                           
<?xpacket end="w"?></metadata>
<defs>
    <style>
      .cls-1 {
        fill: #505050;
        fill-rule: evenodd;
      }
    </style>
  </defs>
  <path id="Shape_7_copy" data-name="Shape 7 copy" class="cls-1" d="M1138.82,167.77h-23.01a9.148,9.148,0,0,1-7.12,7.119v20.269h9.13a1.826,1.826,0,1,1,0,3.652h-21.91a1.826,1.826,0,0,1,0-3.652h9.13V174.889a9.161,9.161,0,0,1-7.12-7.119c-0.29,0-23.01.016-23.3-.03-0.69,1.14-.55.89-6.14,6.97,1.91,2.042.24,2.849-3.2,6.05,0,16.536.28,16.026-.78,16.775a51.394,51.394,0,0,1-29.84,9.484h-0.05a0.016,0.016,0,0,0-.01,0,51.421,51.421,0,0,1-29.79-9.483,1.833,1.833,0,0,1-.77-1.49c0-18.511-.12-17.612.19-18.241-3.2-3.815-5.129-10.55-3.76-17.051,2.75-12.9,15.86-17.62,20.95-16.644l0.04,0a0.512,0.512,0,0,1,.15-0.019c0.07,0,.32.011,0.36,0.017s0.29,0.068.35,0.088c0.03,0.011.26,0.118,0.32,0.153,0.03,0.018.22,0.161,0.29,0.217a17.446,17.446,0,0,0,23.43.133,1.947,1.947,0,0,1,.62-0.363,1.539,1.539,0,0,1,.51-0.09c1.38-.631,11.13-0.087,17.38,7.977V106.6a10.05,10.05,0,0,1,10.04-10.043h63.91a10.05,10.05,0,0,1,10.04,10.043v51.126A10.051,10.051,0,0,1,1138.82,167.77Zm-26.79,0h-10.32A5.477,5.477,0,0,0,1112.03,167.77Zm-75.59,35.565a47.7,47.7,0,0,0,25.18-8.247V184.041a40.075,40.075,0,0,1-25.18,9.207v10.087Zm-28.75-8.247a47.747,47.747,0,0,0,25.1,8.243V193.114a40.173,40.173,0,0,1-25.1-11.609v13.583Zm16.08-45.361,0.3,4.561,4.65-2.388A21.6,21.6,0,0,1,1023.77,149.727Zm-6.36,17.82a1.826,1.826,0,0,1,2.67-2.492,21.214,21.214,0,0,0,12.71,7.048v-18.19l-9.53,4.9a1.818,1.818,0,0,1-1.73-.035c-1.14-.649-0.88-0.813-1.54-11a17.509,17.509,0,0,0-15.95,13.734,17.746,17.746,0,0,0-.38,3.65,17.294,17.294,0,0,0,3.3,10.2s-0.21-.191,3.23,3.478a36.5,36.5,0,0,0,50.79.929l3.73-3.464c-0.23-.184-8.69-9.274-8.89-9.488l-2.75,2.561C1043.63,178.184,1028.06,178.945,1017.41,167.547Zm23.07-15.578,4.61,2.441,0.35-4.557A21.652,21.652,0,0,1,1040.48,151.969Zm8.79-4.21-0.75,9.707a1.824,1.824,0,0,1-1.82,1.686c-0.74,0-.49-0.023-10.26-5.189v18.4a21.062,21.062,0,0,0,14.14-5.654c4.39-4.1,4.78-4.865,6.16-4.307,4.37-6.085,4.45-6.391,5.74-7.292A17.312,17.312,0,0,0,1049.27,147.759Zm17.83,9.481c-3.27.8-2.25,0.13-7.71,7.738l6.59,7.056c5.22-5.673,5.8-6.006,6.24-7.886,0.61-2.666,1.23-4.475.47-7.2l-2.83,2.638A1.823,1.823,0,0,1,1067.1,157.24Zm78.11-50.639a6.394,6.394,0,0,0-6.39-6.391h-63.91a6.4,6.4,0,0,0-6.39,6.391v46.532l3.93-.959,22.42-20.923h-15.39a1.826,1.826,0,1,1,0-3.652h19.3l9.79-9.13h-29.09a1.826,1.826,0,1,1,0-3.651h33a1.833,1.833,0,0,1,2.85,0H1116a1.826,1.826,0,0,1,0,3.651h-2.08l-9.78,9.13h24.64a1.826,1.826,0,0,1,0,3.652h-28.56l-24.63,22.987c1.92,4.4.83,7.933,0.38,9.88h62.85a6.394,6.394,0,0,0,6.39-6.391V106.6Zm-12.78,46.561h-9.13a1.826,1.826,0,1,1,0-3.652h9.13A1.826,1.826,0,0,1,1132.43,153.162Zm0-34.693h-9.13a1.826,1.826,0,0,1,0-3.651h9.13A1.826,1.826,0,0,1,1132.43,118.469Zm0,21.912a1.829,1.829,0,0,1-1.83,1.826H1116a1.826,1.826,0,0,1,0-3.652h14.6A1.828,1.828,0,0,1,1132.43,140.381Zm-23.74,1.826h-12.78a1.826,1.826,0,0,1,0-3.652h12.78A1.826,1.826,0,0,1,1108.69,142.207Zm7.31,10.955h-31.04a1.826,1.826,0,1,1,0-3.652H1116A1.826,1.826,0,0,1,1116,153.162Zm12.49-60.608a1.473,1.473,0,0,1,0-2.947A1.473,1.473,0,0,1,1128.49,92.554Zm-5.19.353h-43.82a1.826,1.826,0,1,1,0-3.652h43.82A1.826,1.826,0,1,1,1123.3,92.906Zm-65.32,26.363c-0.32,3.111-1.39,4.315-2.45,5.282a3.494,3.494,0,0,0-.29.283c-0.78,9.691-8.92,22.22-20.63,22.22-12.09,0-19.95-13.158-20.63-22.237-0.02-.027-0.17-0.168-0.28-0.271-1.07-.966-2.13-2.168-2.45-5.271-0.45-4.2.51-6.3,1.57-7.353a15.341,15.341,0,0,1,7.91-17.968c8.28-4.391,15.15,1.013,21.07-2.727h0a11.279,11.279,0,0,0,3.92-4.467,1.9,1.9,0,0,1,2.59-.8c1.4,0.757,8.47,4.964,9.96,13.539,0.25,1.436,1.16,7.933-1.83,12.431C1057.53,113.026,1058.42,115.149,1057.98,119.269Zm-40.25,5.056c5.1,26.611,30.19,23.733,33.75.074,0-.012.01-0.023,0.01-0.036a4,4,0,0,1,1.49-2.616c0.55-.5,1.03-0.939,1.23-2.874,0.29-2.7-.16-3.786-0.38-4.144a1.877,1.877,0,0,1-.85.314c-11.12,5.7-33.22-14.222-32.47,4.3a1.9,1.9,0,0,1-1.89,1.973c-0.97,0-1.75-.533-3.7-4.126C1014.89,122.944,1017.32,121.047,1017.73,124.325Zm36.81-24.172a15.663,15.663,0,0,0-6.49-9.882,14.335,14.335,0,0,1-4.23,4.161c-3.92,2.479-7.75,2.1-11.45,1.74-3.36-.329-6.52-0.64-9.87,1.132-5.58,2.958-8.25,8.94-5.09,16.307,3.09-9.384,13.65-5.666,19.98-3.646,5.72,1.825,11.63,3.713,14.81,1.094C1055.13,108.651,1055.05,103.071,1054.54,100.153Zm-28.3,20.689h4.36a1.9,1.9,0,0,1,0,3.791h-4.36A1.9,1.9,0,0,1,1026.24,120.842Zm4.6,13.519a5.723,5.723,0,0,0,7.55,0,1.9,1.9,0,0,1,2.66.366c1.92,2.535-3.39,4.854-6.44,4.854a10.071,10.071,0,0,1-6.06-2.2A1.9,1.9,0,0,1,1030.84,134.361Zm9.1-13.519h4.36a1.9,1.9,0,0,1,0,3.791h-4.36A1.9,1.9,0,0,1,1039.94,120.842Zm-5.28,93.482a58.562,58.562,0,0,1-22.61-4.49,1.826,1.826,0,1,1,1.4-3.372,54.992,54.992,0,0,0,21.21,4.21c14.96,0,18.67-5.114,19.82-1.674a1.82,1.82,0,0,1-1.15,2.31A58.893,58.893,0,0,1,1034.66,214.324Zm22.55-8.113a1.473,1.473,0,0,1,0,2.946A1.473,1.473,0,0,1,1057.21,206.211Zm29.57-3.749h40.17a1.826,1.826,0,0,1,0,3.652h-40.17A1.826,1.826,0,0,1,1086.78,202.462Zm45.65,0.353a1.473,1.473,0,0,1,0,2.946A1.473,1.473,0,0,1,1132.43,202.815Z" transform="translate(-1000.03 -85.719)"/>
</svg>

