<svg xmlns="http://www.w3.org/2000/svg" width="140.72" height="149.719" viewBox="0 0 140.72 149.719">
  <metadata><?xpacket begin="﻿" id="icon"?>
<x:xmpmeta xmlns:x="adobe:ns:meta/" x:xmptk="Adobe XMP Core 5.6-c138 79.159824, 2016/09/14-01:09:01        ">
   <rdf:RDF xmlns:rdf="http://www.w3.org/1999/02/22-rdf-syntax-ns#">
      <rdf:Description rdf:about=""/>
   </rdf:RDF>
</x:xmpmeta>
                                                                                                    
                                                                                                    
                                                                                                    
                                                                                                    
                                                                                                    
                                                                                                    
                                                                                                    
                                                                                                    
                                                                                                    
                                                                                                    
                                                                                                    
                                                                                                    
                                                                                                    
                                                                                                    
                                                                                                    
                                                                                                    
                                                                                                    
                                                                                                    
                                                                                                    
                                                                                                    
                           
<?xpacket end="w"?></metadata>
<defs>
    <style>
      .cls-1 {
        fill: #505050;
        fill-rule: evenodd;
      }
    </style>
  </defs>
  <path id="Shape_7_copy_12" data-name="Shape 7 copy 12" class="cls-1" d="M1887.24,674.178v26.476a10.059,10.059,0,0,1-10.05,10.042h-62.08a10.05,10.05,0,0,1-10.04-10.042V687.761l-7.22,2.978a1.835,1.835,0,0,1-1.4,0c-0.93-.389-0.77-0.466-3.77-7.742a1.822,1.822,0,0,1,.99-2.384l11.4-4.7v-1.733c-4.56,0-3.66.889-3.66-14.608a1.829,1.829,0,0,1,1.83-1.826h85.82a1.829,1.829,0,0,1,1.83,1.826C1890.89,674.859,1891.9,674.178,1887.24,674.178Zm-78.52,26.476a6.4,6.4,0,0,0,6.39,6.39h62.08a6.393,6.393,0,0,0,6.39-6.39V674.178h-7.61V697.2a5.12,5.12,0,0,1-10.24,0V674.178h-6.23V697.2a5.12,5.12,0,0,1-10.24,0V674.178h-6.22V697.2a5.12,5.12,0,0,1-10.24,0V676.322l-6.23,2.569v18.3a5.12,5.12,0,0,1-10.24,0V683.114l-7.61,3.141v14.4Zm63.6-3.459V674.178h-2.94V697.2A1.47,1.47,0,0,0,1872.32,697.2Zm-16.47,0V674.178h-2.93V697.2A1.465,1.465,0,1,0,1855.85,697.2Zm-16.46,0V674.178H1838l-1.55.638V697.2A1.47,1.47,0,0,0,1839.39,697.2Zm-16.47,0V680.4l-2.93,1.211V697.2A1.465,1.465,0,1,0,1822.92,697.2Zm-17.85-35.8v9.13h13.05l22.14-9.13h-35.19Zm3.65,12.782V674.4l0.55-.226h-0.55Zm35.68-10.542c-9.82,4.051-37.6,15.51-47.65,19.654l1.39,3.377,47.66-19.655Zm42.84-2.24h-39.81c3.11,7.55,3.94,7.266-.58,9.13h40.39V661.4Zm-16.41-7.447a1.827,1.827,0,0,1-1.82-1.826V597.345h-34.73a1.826,1.826,0,0,1,0-3.652h35.62a2.762,2.762,0,0,1,2.76,2.755v55.675A1.829,1.829,0,0,1,1870.83,653.949ZM1774.46,583.1a15.5,15.5,0,0,1,4.53-10.283,15.218,15.218,0,0,1,21.68,0,15.5,15.5,0,0,1,4.53,10.283c10.34,7.411,13.87,21.846,7.54,34.092-1.72,12.472-10.01,24.124-22.91,24.124-13.06,0-21.18-11.8-22.91-24.126a27.2,27.2,0,0,1,1.23-27.54A24.8,24.8,0,0,1,1774.46,583.1Zm23.62-7.7a11.554,11.554,0,0,0-16.5,0,11.773,11.773,0,0,0-3.08,5.323,28.7,28.7,0,0,1,11.32-2.8l0.01,1.826,0.01-1.826a28.778,28.778,0,0,1,11.32,2.8A11.77,11.77,0,0,0,1798.08,575.391ZM1770.6,617.1c4.45,27.423,34.01,27.461,38.46,0-0.12-.913,1.14-10.979-6.56-17.606-6.96-5.986-18.4-5.972-25.34,0C1769.46,606.122,1770.72,616.189,1770.6,617.1Zm-2.86-8.767c5.78-22.7,38.41-22.644,44.18,0A22.705,22.705,0,0,0,1790,581.566h-0.22A22.711,22.711,0,0,0,1767.74,608.335Zm18.04,5.567a1.83,1.83,0,0,1-2.58.187,1.782,1.782,0,0,0-1.11-.418c-1.14.019-1.23,0.863-2.35,0.863a1.829,1.829,0,0,1-1.2-3.209C1782.17,608.2,1787.94,611.4,1785.78,613.9Zm0,13.083a6.424,6.424,0,0,0,8.34,0,1.825,1.825,0,0,1,2.18,2.928,10.037,10.037,0,0,1-12.7,0A1.826,1.826,0,0,1,1785.78,626.985Zm8.24-15.661c3.65-3.139,9.38.094,7.24,2.577a1.833,1.833,0,0,1-2.58.189,1.773,1.773,0,0,0-2.28,0A1.825,1.825,0,0,1,1794.02,611.324Zm84.23,9.813a1.682,1.682,0,1,1-1.68,1.682A1.68,1.68,0,0,1,1878.25,621.137Zm-1.83-25.474a5.477,5.477,0,0,0-5.47-5.478,1.826,1.826,0,1,1,0-3.652,9.135,9.135,0,0,1,9.12,9.13V615.6a1.825,1.825,0,1,1-3.65,0V595.663Zm-30.51,57.794a1.685,1.685,0,1,1-1.68-1.682A1.68,1.68,0,0,1,1845.91,653.457Zm-18.93,2.461a1.828,1.828,0,0,1-1.83-1.826v-49.3a1.829,1.829,0,0,1,1.83-1.826h34.49a1.82,1.82,0,0,1,1.82,1.826v49.3a1.825,1.825,0,1,1-3.65,0V641.9c-2.59,5.029-8.52,8.556-15.42,8.556s-12.82-3.527-15.42-8.556v12.2A1.82,1.82,0,0,1,1826.98,655.918Zm1.82-49.3v6.335a7.879,7.879,0,0,0,6.34-6.335h-6.34Zm30.84,0h-5.91a7.891,7.891,0,0,0,5.91,6.245v-6.245ZM1844.22,646.8c7.27,0,13.17-4.744,13.17-10.576s-5.9-10.576-13.17-10.576-13.17,4.744-13.17,10.576S1836.96,646.8,1844.22,646.8Zm0-24.8c6.9,0,12.83,3.527,15.42,8.556V616.579a11.53,11.53,0,0,1-9.6-9.961h-11.21a11.531,11.531,0,0,1-10.03,10.025v13.908C1831.4,625.522,1837.33,622,1844.22,622Zm0.01-5.217a1.682,1.682,0,1,1-1.69,1.682A1.68,1.68,0,0,1,1844.23,616.778Zm-68.35,23.566a1.836,1.836,0,0,1,2.24,1.422,19.7,19.7,0,0,0,12.26,14.774,1.868,1.868,0,0,1,.73,0,19.713,19.713,0,0,0,12.25-14.757,1.839,1.839,0,0,1,.81-1.205,1.859,1.859,0,0,1,1.44-.234,32.733,32.733,0,0,1,11.81,5.592,31.109,31.109,0,0,1,5.28,5.167,1.828,1.828,0,0,1-2.85,2.29,26.89,26.89,0,0,0-4.65-4.551,28.544,28.544,0,0,0-8.7-4.449,23.371,23.371,0,0,1-14.79,15.822,6.55,6.55,0,0,1-1.91,0,23.3,23.3,0,0,1-14.81-15.827c-16.28,5.125-22.18,21.84-20.9,38.316a86.84,86.84,0,0,0,11.09,4.2V669.4a1.825,1.825,0,1,1,3.65,0v18.528a87.48,87.48,0,0,0,21.63,2.685,1.826,1.826,0,0,1,0,3.652,90.345,90.345,0,0,1-38.87-8.683c-0.03-.013-0.05-0.032-0.08-0.046-0.06-.031-0.11-0.065-0.17-0.1-0.04-.03-0.08-0.061-0.12-0.094a1.207,1.207,0,0,1-.14-0.123c-0.04-.039-0.07-0.076-0.11-0.117s-0.07-.1-0.11-0.151a0.82,0.82,0,0,1-.08-0.125,1.251,1.251,0,0,1-.08-0.18l-0.06-.132c-0.02-.06-0.03-0.124-0.05-0.187s-0.02-.1-0.03-0.154c0-.013-0.01-0.025-0.01-0.039C1748.68,667.2,1754.75,645.683,1775.88,640.344Zm-20.61,50.822a93.961,93.961,0,0,0,35.19,6.749,1.826,1.826,0,0,1,0,3.652,97.621,97.621,0,0,1-36.55-7.011A1.826,1.826,0,1,1,1755.27,691.166Zm40.78,6.893a1.682,1.682,0,0,1,0,3.364A1.682,1.682,0,0,1,1796.05,698.059Zm31.07,16.289h38.35a1.826,1.826,0,0,1,0,3.652h-38.35A1.826,1.826,0,0,1,1827.12,714.348Zm43.83,0.144a1.682,1.682,0,1,1-1.69,1.682A1.686,1.686,0,0,1,1870.95,714.492Z" transform="translate(-1750.25 -568.281)"/>
</svg>

